<mxfile host="65bd71144e">
    <diagram id="BB-P8LQBv9p690ByxCHv" name="PÃ¡gina-1">
        <mxGraphModel dx="604" dy="422" grid="1" gridSize="1" guides="0" tooltips="1" connect="1" arrows="1" fold="1" page="1" pageScale="1" pageWidth="827" pageHeight="1169" background="none" math="1" shadow="1">
            <root>
                <mxCell id="0"/>
                <mxCell id="1" parent="0"/>
                <mxCell id="FZvzwjzBKpcImFm5YrXo-7" value="\(x_2\)" style="text;html=1;align=center;verticalAlign=middle;resizable=0;points=[];autosize=1;" parent="1" vertex="1">
                    <mxGeometry x="639" y="119" width="54" height="28" as="geometry"/>
                </mxCell>
                <mxCell id="_RkswcxPKLXW6ceY8JrJ-8" style="edgeStyle=orthogonalEdgeStyle;rounded=0;orthogonalLoop=1;jettySize=auto;html=1;exitX=1;exitY=0.5;exitDx=0;exitDy=0;entryX=1;entryY=0.5;entryDx=0;entryDy=0;" parent="1" source="_RkswcxPKLXW6ceY8JrJ-1" target="_RkswcxPKLXW6ceY8JrJ-4" edge="1">
                    <mxGeometry relative="1" as="geometry">
                        <Array as="points">
                            <mxPoint x="431" y="141"/>
                            <mxPoint x="431" y="204"/>
                        </Array>
                    </mxGeometry>
                </mxCell>
                <mxCell id="_RkswcxPKLXW6ceY8JrJ-1" value="\(\frac{1}{s}\)" style="rounded=0;whiteSpace=wrap;html=1;" parent="1" vertex="1">
                    <mxGeometry x="365" y="126" width="30" height="30" as="geometry"/>
                </mxCell>
                <mxCell id="_RkswcxPKLXW6ceY8JrJ-5" value="" style="edgeStyle=orthogonalEdgeStyle;rounded=0;orthogonalLoop=1;jettySize=auto;html=1;" parent="1" source="_RkswcxPKLXW6ceY8JrJ-2" target="_RkswcxPKLXW6ceY8JrJ-1" edge="1">
                    <mxGeometry relative="1" as="geometry"/>
                </mxCell>
                <mxCell id="0LmL37Ir94_41o80-0yw-110" style="edgeStyle=orthogonalEdgeStyle;rounded=0;orthogonalLoop=1;jettySize=auto;html=1;exitX=0;exitY=0.5;exitDx=0;exitDy=0;fontSize=10;startArrow=classic;startFill=1;endArrow=none;endFill=0;" parent="1" source="_RkswcxPKLXW6ceY8JrJ-2" edge="1">
                    <mxGeometry relative="1" as="geometry">
                        <mxPoint x="260.17647058823536" y="207.3529411764706" as="targetPoint"/>
                    </mxGeometry>
                </mxCell>
                <mxCell id="_RkswcxPKLXW6ceY8JrJ-2" value="" style="shape=sumEllipse;perimeter=ellipsePerimeter;whiteSpace=wrap;html=1;backgroundOutline=1;" parent="1" vertex="1">
                    <mxGeometry x="311" y="131" width="20" height="20" as="geometry"/>
                </mxCell>
                <mxCell id="_RkswcxPKLXW6ceY8JrJ-7" style="edgeStyle=orthogonalEdgeStyle;rounded=0;orthogonalLoop=1;jettySize=auto;html=1;entryX=0.5;entryY=1;entryDx=0;entryDy=0;" parent="1" source="_RkswcxPKLXW6ceY8JrJ-4" target="_RkswcxPKLXW6ceY8JrJ-2" edge="1">
                    <mxGeometry relative="1" as="geometry"/>
                </mxCell>
                <mxCell id="_RkswcxPKLXW6ceY8JrJ-4" value="-3" style="rounded=0;whiteSpace=wrap;html=1;" parent="1" vertex="1">
                    <mxGeometry x="365" y="189" width="30" height="30" as="geometry"/>
                </mxCell>
                <mxCell id="_RkswcxPKLXW6ceY8JrJ-9" style="edgeStyle=orthogonalEdgeStyle;rounded=0;orthogonalLoop=1;jettySize=auto;html=1;exitX=1;exitY=0.5;exitDx=0;exitDy=0;entryX=1;entryY=0.5;entryDx=0;entryDy=0;" parent="1" source="_RkswcxPKLXW6ceY8JrJ-10" target="_RkswcxPKLXW6ceY8JrJ-14" edge="1">
                    <mxGeometry relative="1" as="geometry">
                        <Array as="points">
                            <mxPoint x="431" y="244"/>
                            <mxPoint x="431" y="294"/>
                        </Array>
                    </mxGeometry>
                </mxCell>
                <mxCell id="_RkswcxPKLXW6ceY8JrJ-10" value="\(\frac{1}{s}\)" style="rounded=0;whiteSpace=wrap;html=1;" parent="1" vertex="1">
                    <mxGeometry x="365" y="229" width="30" height="30" as="geometry"/>
                </mxCell>
                <mxCell id="_RkswcxPKLXW6ceY8JrJ-11" value="" style="edgeStyle=orthogonalEdgeStyle;rounded=0;orthogonalLoop=1;jettySize=auto;html=1;" parent="1" source="_RkswcxPKLXW6ceY8JrJ-12" target="_RkswcxPKLXW6ceY8JrJ-10" edge="1">
                    <mxGeometry relative="1" as="geometry"/>
                </mxCell>
                <mxCell id="0LmL37Ir94_41o80-0yw-111" style="edgeStyle=orthogonalEdgeStyle;rounded=0;orthogonalLoop=1;jettySize=auto;html=1;exitX=0;exitY=0.5;exitDx=0;exitDy=0;fontSize=10;startArrow=classic;startFill=1;endArrow=none;endFill=0;" parent="1" source="_RkswcxPKLXW6ceY8JrJ-12" edge="1">
                    <mxGeometry relative="1" as="geometry">
                        <mxPoint x="260.17647058823536" y="206.76470588235293" as="targetPoint"/>
                    </mxGeometry>
                </mxCell>
                <mxCell id="_RkswcxPKLXW6ceY8JrJ-12" value="" style="shape=sumEllipse;perimeter=ellipsePerimeter;whiteSpace=wrap;html=1;backgroundOutline=1;" parent="1" vertex="1">
                    <mxGeometry x="311" y="234" width="20" height="20" as="geometry"/>
                </mxCell>
                <mxCell id="_RkswcxPKLXW6ceY8JrJ-13" style="edgeStyle=orthogonalEdgeStyle;rounded=0;orthogonalLoop=1;jettySize=auto;html=1;entryX=0.5;entryY=1;entryDx=0;entryDy=0;" parent="1" source="_RkswcxPKLXW6ceY8JrJ-14" target="_RkswcxPKLXW6ceY8JrJ-12" edge="1">
                    <mxGeometry relative="1" as="geometry"/>
                </mxCell>
                <mxCell id="_RkswcxPKLXW6ceY8JrJ-14" value="-5" style="rounded=0;whiteSpace=wrap;html=1;" parent="1" vertex="1">
                    <mxGeometry x="365" y="279" width="30" height="30" as="geometry"/>
                </mxCell>
                <mxCell id="_RkswcxPKLXW6ceY8JrJ-21" value="" style="endArrow=none;html=1;" parent="1" edge="1">
                    <mxGeometry width="50" height="50" relative="1" as="geometry">
                        <mxPoint x="226" y="195" as="sourcePoint"/>
                        <mxPoint x="260" y="195" as="targetPoint"/>
                    </mxGeometry>
                </mxCell>
                <mxCell id="0LmL37Ir94_41o80-0yw-107" style="edgeStyle=orthogonalEdgeStyle;rounded=0;orthogonalLoop=1;jettySize=auto;html=1;exitX=1;exitY=0.5;exitDx=0;exitDy=0;entryX=0;entryY=0.5;entryDx=0;entryDy=0;fontSize=10;startArrow=none;startFill=0;endArrow=classic;endFill=1;" parent="1" source="_RkswcxPKLXW6ceY8JrJ-27" target="FZvzwjzBKpcImFm5YrXo-18" edge="1">
                    <mxGeometry relative="1" as="geometry"/>
                </mxCell>
                <mxCell id="0LmL37Ir94_41o80-0yw-109" style="edgeStyle=orthogonalEdgeStyle;rounded=0;orthogonalLoop=1;jettySize=auto;html=1;exitX=0;exitY=0.5;exitDx=0;exitDy=0;fontSize=10;startArrow=classic;startFill=1;endArrow=none;endFill=0;" parent="1" source="_RkswcxPKLXW6ceY8JrJ-27" edge="1">
                    <mxGeometry relative="1" as="geometry">
                        <mxPoint x="431" y="244" as="targetPoint"/>
                    </mxGeometry>
                </mxCell>
                <mxCell id="_RkswcxPKLXW6ceY8JrJ-27" value="-20" style="rounded=0;whiteSpace=wrap;html=1;" parent="1" vertex="1">
                    <mxGeometry x="461" y="229" width="36" height="30" as="geometry"/>
                </mxCell>
                <mxCell id="_RkswcxPKLXW6ceY8JrJ-36" style="edgeStyle=orthogonalEdgeStyle;rounded=0;orthogonalLoop=1;jettySize=auto;html=1;exitX=1;exitY=0.5;exitDx=0;exitDy=0;startArrow=none;startFill=0;endArrow=classic;endFill=1;" parent="1" source="_RkswcxPKLXW6ceY8JrJ-32" edge="1">
                    <mxGeometry relative="1" as="geometry">
                        <mxPoint x="760" y="245" as="targetPoint"/>
                        <Array as="points">
                            <mxPoint x="755" y="244"/>
                            <mxPoint x="755" y="244"/>
                        </Array>
                    </mxGeometry>
                </mxCell>
                <mxCell id="FZvzwjzBKpcImFm5YrXo-23" style="edgeStyle=orthogonalEdgeStyle;rounded=0;orthogonalLoop=1;jettySize=auto;html=1;exitX=0.5;exitY=0;exitDx=0;exitDy=0;entryX=0.5;entryY=1;entryDx=0;entryDy=0;startArrow=classic;startFill=1;endArrow=none;endFill=0;" parent="1" source="_RkswcxPKLXW6ceY8JrJ-32" target="FZvzwjzBKpcImFm5YrXo-11" edge="1">
                    <mxGeometry relative="1" as="geometry"/>
                </mxCell>
                <mxCell id="FZvzwjzBKpcImFm5YrXo-24" style="edgeStyle=orthogonalEdgeStyle;rounded=0;orthogonalLoop=1;jettySize=auto;html=1;exitX=0;exitY=0.5;exitDx=0;exitDy=0;entryX=1;entryY=0.5;entryDx=0;entryDy=0;startArrow=classic;startFill=1;endArrow=none;endFill=0;" parent="1" source="_RkswcxPKLXW6ceY8JrJ-32" target="FZvzwjzBKpcImFm5YrXo-18" edge="1">
                    <mxGeometry relative="1" as="geometry"/>
                </mxCell>
                <mxCell id="_RkswcxPKLXW6ceY8JrJ-32" value="" style="shape=sumEllipse;perimeter=ellipsePerimeter;whiteSpace=wrap;html=1;backgroundOutline=1;" parent="1" vertex="1">
                    <mxGeometry x="695" y="234" width="20" height="20" as="geometry"/>
                </mxCell>
                <mxCell id="_RkswcxPKLXW6ceY8JrJ-37" value="\(x_1\)" style="text;html=1;align=center;verticalAlign=middle;resizable=0;points=[];autosize=1;" parent="1" vertex="1">
                    <mxGeometry x="392" y="121" width="46" height="20" as="geometry"/>
                </mxCell>
                <mxCell id="_RkswcxPKLXW6ceY8JrJ-38" value="\(x_3\)" style="text;html=1;align=center;verticalAlign=middle;resizable=0;points=[];autosize=1;" parent="1" vertex="1">
                    <mxGeometry x="388" y="221" width="54" height="28" as="geometry"/>
                </mxCell>
                <mxCell id="_RkswcxPKLXW6ceY8JrJ-40" value="\(y\)" style="text;html=1;align=center;verticalAlign=middle;resizable=0;points=[];autosize=1;" parent="1" vertex="1">
                    <mxGeometry x="713" y="225" width="32" height="20" as="geometry"/>
                </mxCell>
                <mxCell id="_RkswcxPKLXW6ceY8JrJ-41" value="\(u\)" style="text;html=1;align=center;verticalAlign=middle;resizable=0;points=[];autosize=1;" parent="1" vertex="1">
                    <mxGeometry x="222" y="177" width="32" height="20" as="geometry"/>
                </mxCell>
                <mxCell id="_RkswcxPKLXW6ceY8JrJ-42" value="\(\dot{x}_1\)" style="text;html=1;align=center;verticalAlign=middle;resizable=0;points=[];autosize=1;" parent="1" vertex="1">
                    <mxGeometry x="310" y="119" width="74" height="20" as="geometry"/>
                </mxCell>
                <mxCell id="FZvzwjzBKpcImFm5YrXo-1" style="edgeStyle=orthogonalEdgeStyle;rounded=0;orthogonalLoop=1;jettySize=auto;html=1;exitX=1;exitY=0.5;exitDx=0;exitDy=0;entryX=1;entryY=0.5;entryDx=0;entryDy=0;" parent="1" source="FZvzwjzBKpcImFm5YrXo-2" target="FZvzwjzBKpcImFm5YrXo-6" edge="1">
                    <mxGeometry relative="1" as="geometry">
                        <Array as="points">
                            <mxPoint x="677" y="141"/>
                            <mxPoint x="677" y="206"/>
                        </Array>
                    </mxGeometry>
                </mxCell>
                <mxCell id="FZvzwjzBKpcImFm5YrXo-2" value="\(\frac{1}{s}\)" style="rounded=0;whiteSpace=wrap;html=1;" parent="1" vertex="1">
                    <mxGeometry x="617" y="126" width="30" height="30" as="geometry"/>
                </mxCell>
                <mxCell id="FZvzwjzBKpcImFm5YrXo-3" value="" style="edgeStyle=orthogonalEdgeStyle;rounded=0;orthogonalLoop=1;jettySize=auto;html=1;" parent="1" source="FZvzwjzBKpcImFm5YrXo-4" target="FZvzwjzBKpcImFm5YrXo-2" edge="1">
                    <mxGeometry relative="1" as="geometry"/>
                </mxCell>
                <mxCell id="FZvzwjzBKpcImFm5YrXo-10" style="edgeStyle=orthogonalEdgeStyle;rounded=0;orthogonalLoop=1;jettySize=auto;html=1;startArrow=classic;startFill=1;endArrow=none;endFill=0;" parent="1" source="FZvzwjzBKpcImFm5YrXo-4" edge="1">
                    <mxGeometry relative="1" as="geometry">
                        <mxPoint x="431" y="141" as="targetPoint"/>
                        <Array as="points">
                            <mxPoint x="489" y="141"/>
                        </Array>
                    </mxGeometry>
                </mxCell>
                <mxCell id="FZvzwjzBKpcImFm5YrXo-4" value="" style="shape=sumEllipse;perimeter=ellipsePerimeter;whiteSpace=wrap;html=1;backgroundOutline=1;" parent="1" vertex="1">
                    <mxGeometry x="563" y="131" width="20" height="20" as="geometry"/>
                </mxCell>
                <mxCell id="FZvzwjzBKpcImFm5YrXo-5" style="edgeStyle=orthogonalEdgeStyle;rounded=0;orthogonalLoop=1;jettySize=auto;html=1;entryX=0.5;entryY=1;entryDx=0;entryDy=0;" parent="1" source="FZvzwjzBKpcImFm5YrXo-6" target="FZvzwjzBKpcImFm5YrXo-4" edge="1">
                    <mxGeometry relative="1" as="geometry"/>
                </mxCell>
                <mxCell id="FZvzwjzBKpcImFm5YrXo-6" value="-3" style="rounded=0;whiteSpace=wrap;html=1;" parent="1" vertex="1">
                    <mxGeometry x="617" y="191" width="30" height="30" as="geometry"/>
                </mxCell>
                <mxCell id="FZvzwjzBKpcImFm5YrXo-8" value="\(\dot{x}_2\)" style="text;html=1;align=center;verticalAlign=middle;resizable=0;points=[];autosize=1;" parent="1" vertex="1">
                    <mxGeometry x="557" y="118" width="82" height="28" as="geometry"/>
                </mxCell>
                <mxCell id="0LmL37Ir94_41o80-0yw-114" style="edgeStyle=orthogonalEdgeStyle;rounded=0;orthogonalLoop=1;jettySize=auto;html=1;exitX=0.5;exitY=0;exitDx=0;exitDy=0;fontSize=10;startArrow=classic;startFill=1;endArrow=none;endFill=0;" parent="1" source="FZvzwjzBKpcImFm5YrXo-11" edge="1">
                    <mxGeometry relative="1" as="geometry">
                        <mxPoint x="677" y="141" as="targetPoint"/>
                        <Array as="points">
                            <mxPoint x="705" y="141"/>
                        </Array>
                    </mxGeometry>
                </mxCell>
                <mxCell id="FZvzwjzBKpcImFm5YrXo-11" value="-24" style="rounded=0;whiteSpace=wrap;html=1;" parent="1" vertex="1">
                    <mxGeometry x="690" y="167" width="30" height="30" as="geometry"/>
                </mxCell>
                <mxCell id="FZvzwjzBKpcImFm5YrXo-19" style="edgeStyle=orthogonalEdgeStyle;rounded=0;orthogonalLoop=1;jettySize=auto;html=1;exitX=0.5;exitY=0;exitDx=0;exitDy=0;startArrow=none;startFill=1;endArrow=none;endFill=0;" parent="1" source="_RkswcxPKLXW6ceY8JrJ-26" edge="1">
                    <mxGeometry relative="1" as="geometry">
                        <mxPoint x="529" y="141" as="targetPoint"/>
                    </mxGeometry>
                </mxCell>
                <mxCell id="FZvzwjzBKpcImFm5YrXo-18" value="" style="shape=sumEllipse;perimeter=ellipsePerimeter;whiteSpace=wrap;html=1;backgroundOutline=1;" parent="1" vertex="1">
                    <mxGeometry x="519" y="234" width="20" height="20" as="geometry"/>
                </mxCell>
                <mxCell id="0LmL37Ir94_41o80-0yw-1" style="edgeStyle=orthogonalEdgeStyle;rounded=0;orthogonalLoop=1;jettySize=auto;html=1;exitX=1;exitY=0.5;exitDx=0;exitDy=0;entryX=1;entryY=0.5;entryDx=0;entryDy=0;" parent="1" source="0LmL37Ir94_41o80-0yw-2" target="0LmL37Ir94_41o80-0yw-6" edge="1">
                    <mxGeometry relative="1" as="geometry">
                        <Array as="points">
                            <mxPoint x="468" y="427"/>
                            <mxPoint x="468" y="477"/>
                        </Array>
                    </mxGeometry>
                </mxCell>
                <mxCell id="0LmL37Ir94_41o80-0yw-2" value="\(\frac{1}{s}\)" style="rounded=0;whiteSpace=wrap;html=1;" parent="1" vertex="1">
                    <mxGeometry x="373" y="412" width="30" height="30" as="geometry"/>
                </mxCell>
                <mxCell id="0LmL37Ir94_41o80-0yw-3" value="" style="edgeStyle=orthogonalEdgeStyle;rounded=0;orthogonalLoop=1;jettySize=auto;html=1;" parent="1" source="0LmL37Ir94_41o80-0yw-4" target="0LmL37Ir94_41o80-0yw-2" edge="1">
                    <mxGeometry relative="1" as="geometry"/>
                </mxCell>
                <mxCell id="0LmL37Ir94_41o80-0yw-10" style="edgeStyle=orthogonalEdgeStyle;rounded=0;orthogonalLoop=1;jettySize=auto;html=1;startArrow=classic;startFill=1;endArrow=none;endFill=0;" parent="1" source="0LmL37Ir94_41o80-0yw-4" edge="1">
                    <mxGeometry relative="1" as="geometry">
                        <mxPoint x="243" y="534" as="targetPoint"/>
                    </mxGeometry>
                </mxCell>
                <mxCell id="0LmL37Ir94_41o80-0yw-4" value="" style="shape=sumEllipse;perimeter=ellipsePerimeter;whiteSpace=wrap;html=1;backgroundOutline=1;" parent="1" vertex="1">
                    <mxGeometry x="276" y="417" width="20" height="20" as="geometry"/>
                </mxCell>
                <mxCell id="0LmL37Ir94_41o80-0yw-5" style="edgeStyle=orthogonalEdgeStyle;rounded=0;orthogonalLoop=1;jettySize=auto;html=1;entryX=0.5;entryY=1;entryDx=0;entryDy=0;" parent="1" source="0LmL37Ir94_41o80-0yw-6" target="0LmL37Ir94_41o80-0yw-4" edge="1">
                    <mxGeometry relative="1" as="geometry"/>
                </mxCell>
                <mxCell id="0LmL37Ir94_41o80-0yw-6" value="\(\sigma+j\omega\)" style="rounded=0;whiteSpace=wrap;html=1;" parent="1" vertex="1">
                    <mxGeometry x="336" y="462" width="63" height="30" as="geometry"/>
                </mxCell>
                <mxCell id="0LmL37Ir94_41o80-0yw-7" value="\(R+jI\)" style="text;html=1;align=center;verticalAlign=middle;resizable=0;points=[];autosize=1;" parent="1" vertex="1">
                    <mxGeometry x="409" y="401" width="55" height="27" as="geometry"/>
                </mxCell>
                <mxCell id="0LmL37Ir94_41o80-0yw-8" value="\(\dot{R}+j\dot{I}\)" style="text;html=1;align=center;verticalAlign=middle;resizable=0;points=[];autosize=1;" parent="1" vertex="1">
                    <mxGeometry x="273" y="400" width="111" height="27" as="geometry"/>
                </mxCell>
                <mxCell id="0LmL37Ir94_41o80-0yw-11" value="\(u\)" style="text;html=1;align=center;verticalAlign=middle;resizable=0;points=[];autosize=1;strokeColor=none;fillColor=none;" parent="1" vertex="1">
                    <mxGeometry x="198" y="456" width="40" height="27" as="geometry"/>
                </mxCell>
                <mxCell id="0LmL37Ir94_41o80-0yw-14" style="edgeStyle=orthogonalEdgeStyle;rounded=0;orthogonalLoop=1;jettySize=auto;html=1;startArrow=classic;startFill=1;endArrow=none;endFill=0;" parent="1" source="0LmL37Ir94_41o80-0yw-12" edge="1">
                    <mxGeometry relative="1" as="geometry">
                        <mxPoint x="468" y="427" as="targetPoint"/>
                    </mxGeometry>
                </mxCell>
                <mxCell id="0LmL37Ir94_41o80-0yw-15" style="edgeStyle=orthogonalEdgeStyle;rounded=0;orthogonalLoop=1;jettySize=auto;html=1;startArrow=none;startFill=0;endArrow=classic;endFill=1;entryX=0.5;entryY=0;entryDx=0;entryDy=0;" parent="1" source="0LmL37Ir94_41o80-0yw-12" target="0LmL37Ir94_41o80-0yw-29" edge="1">
                    <mxGeometry relative="1" as="geometry">
                        <mxPoint x="613" y="427" as="targetPoint"/>
                    </mxGeometry>
                </mxCell>
                <mxCell id="0LmL37Ir94_41o80-0yw-12" value="\(A+jB\)" style="rounded=0;whiteSpace=wrap;html=1;" parent="1" vertex="1">
                    <mxGeometry x="504" y="412" width="63" height="30" as="geometry"/>
                </mxCell>
                <mxCell id="0LmL37Ir94_41o80-0yw-16" style="edgeStyle=orthogonalEdgeStyle;rounded=0;orthogonalLoop=1;jettySize=auto;html=1;exitX=1;exitY=0.5;exitDx=0;exitDy=0;entryX=1;entryY=0.5;entryDx=0;entryDy=0;" parent="1" source="0LmL37Ir94_41o80-0yw-17" target="0LmL37Ir94_41o80-0yw-22" edge="1">
                    <mxGeometry relative="1" as="geometry">
                        <Array as="points">
                            <mxPoint x="467" y="533"/>
                            <mxPoint x="467" y="583"/>
                        </Array>
                    </mxGeometry>
                </mxCell>
                <mxCell id="0LmL37Ir94_41o80-0yw-17" value="\(\frac{1}{s}\)" style="rounded=0;whiteSpace=wrap;html=1;" parent="1" vertex="1">
                    <mxGeometry x="372" y="518" width="30" height="30" as="geometry"/>
                </mxCell>
                <mxCell id="0LmL37Ir94_41o80-0yw-18" value="" style="edgeStyle=orthogonalEdgeStyle;rounded=0;orthogonalLoop=1;jettySize=auto;html=1;" parent="1" source="0LmL37Ir94_41o80-0yw-20" target="0LmL37Ir94_41o80-0yw-17" edge="1">
                    <mxGeometry relative="1" as="geometry"/>
                </mxCell>
                <mxCell id="0LmL37Ir94_41o80-0yw-19" style="edgeStyle=orthogonalEdgeStyle;rounded=0;orthogonalLoop=1;jettySize=auto;html=1;startArrow=classic;startFill=1;endArrow=none;endFill=0;" parent="1" source="0LmL37Ir94_41o80-0yw-20" edge="1">
                    <mxGeometry relative="1" as="geometry">
                        <mxPoint x="243" y="533" as="targetPoint"/>
                    </mxGeometry>
                </mxCell>
                <mxCell id="0LmL37Ir94_41o80-0yw-20" value="" style="shape=sumEllipse;perimeter=ellipsePerimeter;whiteSpace=wrap;html=1;backgroundOutline=1;" parent="1" vertex="1">
                    <mxGeometry x="275" y="523" width="20" height="20" as="geometry"/>
                </mxCell>
                <mxCell id="0LmL37Ir94_41o80-0yw-21" style="edgeStyle=orthogonalEdgeStyle;rounded=0;orthogonalLoop=1;jettySize=auto;html=1;entryX=0.5;entryY=1;entryDx=0;entryDy=0;" parent="1" source="0LmL37Ir94_41o80-0yw-22" target="0LmL37Ir94_41o80-0yw-20" edge="1">
                    <mxGeometry relative="1" as="geometry"/>
                </mxCell>
                <mxCell id="0LmL37Ir94_41o80-0yw-22" value="\(\sigma-j\omega\)" style="rounded=0;whiteSpace=wrap;html=1;" parent="1" vertex="1">
                    <mxGeometry x="335" y="568" width="63" height="30" as="geometry"/>
                </mxCell>
                <mxCell id="0LmL37Ir94_41o80-0yw-23" value="\(R-jI\)" style="text;html=1;align=center;verticalAlign=middle;resizable=0;points=[];autosize=1;" parent="1" vertex="1">
                    <mxGeometry x="410" y="507" width="52" height="27" as="geometry"/>
                </mxCell>
                <mxCell id="0LmL37Ir94_41o80-0yw-24" value="\(\dot{R}-j\dot{I}\)" style="text;html=1;align=center;verticalAlign=middle;resizable=0;points=[];autosize=1;" parent="1" vertex="1">
                    <mxGeometry x="274" y="506" width="108" height="27" as="geometry"/>
                </mxCell>
                <mxCell id="0LmL37Ir94_41o80-0yw-26" style="edgeStyle=orthogonalEdgeStyle;rounded=0;orthogonalLoop=1;jettySize=auto;html=1;startArrow=classic;startFill=1;endArrow=none;endFill=0;" parent="1" source="0LmL37Ir94_41o80-0yw-28" edge="1">
                    <mxGeometry relative="1" as="geometry">
                        <mxPoint x="467" y="533" as="targetPoint"/>
                    </mxGeometry>
                </mxCell>
                <mxCell id="0LmL37Ir94_41o80-0yw-27" style="edgeStyle=orthogonalEdgeStyle;rounded=0;orthogonalLoop=1;jettySize=auto;html=1;startArrow=none;startFill=0;endArrow=classic;endFill=1;entryX=0.5;entryY=1;entryDx=0;entryDy=0;" parent="1" source="0LmL37Ir94_41o80-0yw-28" target="0LmL37Ir94_41o80-0yw-29" edge="1">
                    <mxGeometry relative="1" as="geometry">
                        <mxPoint x="612" y="533" as="targetPoint"/>
                    </mxGeometry>
                </mxCell>
                <mxCell id="0LmL37Ir94_41o80-0yw-28" value="\(A-jB\)" style="rounded=0;whiteSpace=wrap;html=1;" parent="1" vertex="1">
                    <mxGeometry x="503" y="518" width="63" height="30" as="geometry"/>
                </mxCell>
                <mxCell id="0LmL37Ir94_41o80-0yw-31" style="edgeStyle=orthogonalEdgeStyle;rounded=0;orthogonalLoop=1;jettySize=auto;html=1;exitX=1;exitY=0.5;exitDx=0;exitDy=0;startArrow=none;startFill=0;endArrow=classic;endFill=1;" parent="1" source="0LmL37Ir94_41o80-0yw-29" edge="1">
                    <mxGeometry relative="1" as="geometry">
                        <mxPoint x="633" y="477" as="targetPoint"/>
                    </mxGeometry>
                </mxCell>
                <mxCell id="0LmL37Ir94_41o80-0yw-29" value="" style="shape=sumEllipse;perimeter=ellipsePerimeter;whiteSpace=wrap;html=1;backgroundOutline=1;" parent="1" vertex="1">
                    <mxGeometry x="585" y="467" width="20" height="20" as="geometry"/>
                </mxCell>
                <mxCell id="0LmL37Ir94_41o80-0yw-30" value="" style="endArrow=none;html=1;rounded=0;" parent="1" edge="1">
                    <mxGeometry width="50" height="50" relative="1" as="geometry">
                        <mxPoint x="215" y="480" as="sourcePoint"/>
                        <mxPoint x="243" y="480" as="targetPoint"/>
                    </mxGeometry>
                </mxCell>
                <mxCell id="0LmL37Ir94_41o80-0yw-32" value="\(y\)" style="text;html=1;align=center;verticalAlign=middle;resizable=0;points=[];autosize=1;strokeColor=none;fillColor=none;" parent="1" vertex="1">
                    <mxGeometry x="617" y="452" width="40" height="27" as="geometry"/>
                </mxCell>
                <mxCell id="0LmL37Ir94_41o80-0yw-35" style="edgeStyle=orthogonalEdgeStyle;rounded=0;orthogonalLoop=1;jettySize=auto;html=1;exitX=1;exitY=0.5;exitDx=0;exitDy=0;entryX=1;entryY=0.5;entryDx=0;entryDy=0;" parent="1" source="0LmL37Ir94_41o80-0yw-73" target="0LmL37Ir94_41o80-0yw-40" edge="1">
                    <mxGeometry relative="1" as="geometry">
                        <Array as="points">
                            <mxPoint x="454" y="734"/>
                            <mxPoint x="454" y="764"/>
                        </Array>
                        <mxPoint x="404" y="714" as="sourcePoint"/>
                    </mxGeometry>
                </mxCell>
                <mxCell id="0LmL37Ir94_41o80-0yw-56" style="edgeStyle=orthogonalEdgeStyle;rounded=0;orthogonalLoop=1;jettySize=auto;html=1;exitX=0;exitY=0.5;exitDx=0;exitDy=0;startArrow=none;startFill=0;endArrow=classic;endFill=1;entryX=0.5;entryY=1;entryDx=0;entryDy=0;" parent="1" source="0LmL37Ir94_41o80-0yw-40" target="0LmL37Ir94_41o80-0yw-54" edge="1">
                    <mxGeometry relative="1" as="geometry">
                        <mxPoint x="334" y="764" as="targetPoint"/>
                    </mxGeometry>
                </mxCell>
                <mxCell id="0LmL37Ir94_41o80-0yw-40" value="&lt;font style=&quot;font-size: 10px;&quot;&gt;\(\sigma\)&lt;/font&gt;" style="rounded=0;whiteSpace=wrap;html=1;" parent="1" vertex="1">
                    <mxGeometry x="383" y="754" width="21" height="20" as="geometry"/>
                </mxCell>
                <mxCell id="0LmL37Ir94_41o80-0yw-41" value="\(R\)" style="text;html=1;align=center;verticalAlign=middle;resizable=0;points=[];autosize=1;fontSize=10;" parent="1" vertex="1">
                    <mxGeometry x="405" y="713" width="40" height="30" as="geometry"/>
                </mxCell>
                <mxCell id="0LmL37Ir94_41o80-0yw-57" style="edgeStyle=orthogonalEdgeStyle;rounded=0;orthogonalLoop=1;jettySize=auto;html=1;exitX=1;exitY=0.5;exitDx=0;exitDy=0;entryX=0;entryY=0.5;entryDx=0;entryDy=0;fontSize=10;startArrow=none;startFill=0;endArrow=classic;endFill=1;" parent="1" source="0LmL37Ir94_41o80-0yw-54" edge="1">
                    <mxGeometry relative="1" as="geometry">
                        <mxPoint x="384" y="734" as="targetPoint"/>
                    </mxGeometry>
                </mxCell>
                <mxCell id="0LmL37Ir94_41o80-0yw-70" style="edgeStyle=orthogonalEdgeStyle;rounded=0;orthogonalLoop=1;jettySize=auto;html=1;exitX=0.5;exitY=0;exitDx=0;exitDy=0;fontSize=10;startArrow=classic;startFill=1;endArrow=none;endFill=0;" parent="1" source="0LmL37Ir94_41o80-0yw-54" edge="1">
                    <mxGeometry relative="1" as="geometry">
                        <mxPoint x="464" y="794" as="targetPoint"/>
                    </mxGeometry>
                </mxCell>
                <mxCell id="0LmL37Ir94_41o80-0yw-87" style="edgeStyle=orthogonalEdgeStyle;rounded=0;orthogonalLoop=1;jettySize=auto;html=1;exitX=0;exitY=0.5;exitDx=0;exitDy=0;fontSize=10;startArrow=classic;startFill=1;endArrow=oval;endFill=1;" parent="1" source="0LmL37Ir94_41o80-0yw-54" edge="1">
                    <mxGeometry relative="1" as="geometry">
                        <mxPoint x="304" y="784" as="targetPoint"/>
                    </mxGeometry>
                </mxCell>
                <mxCell id="0LmL37Ir94_41o80-0yw-54" value="" style="shape=sumEllipse;perimeter=ellipsePerimeter;whiteSpace=wrap;html=1;backgroundOutline=1;" parent="1" vertex="1">
                    <mxGeometry x="324" y="724" width="20" height="20" as="geometry"/>
                </mxCell>
                <mxCell id="0LmL37Ir94_41o80-0yw-72" style="edgeStyle=orthogonalEdgeStyle;rounded=0;orthogonalLoop=1;jettySize=auto;html=1;exitX=1;exitY=0.5;exitDx=0;exitDy=0;fontSize=10;startArrow=none;startFill=0;endArrow=none;endFill=0;" parent="1" source="0LmL37Ir94_41o80-0yw-60" edge="1">
                    <mxGeometry relative="1" as="geometry">
                        <mxPoint x="464" y="794" as="targetPoint"/>
                    </mxGeometry>
                </mxCell>
                <mxCell id="0LmL37Ir94_41o80-0yw-77" style="edgeStyle=orthogonalEdgeStyle;rounded=0;orthogonalLoop=1;jettySize=auto;html=1;exitX=0;exitY=0.5;exitDx=0;exitDy=0;entryX=1;entryY=0.5;entryDx=0;entryDy=0;fontSize=10;startArrow=classic;startFill=1;endArrow=none;endFill=0;" parent="1" source="0LmL37Ir94_41o80-0yw-60" target="0LmL37Ir94_41o80-0yw-66" edge="1">
                    <mxGeometry relative="1" as="geometry"/>
                </mxCell>
                <mxCell id="0LmL37Ir94_41o80-0yw-60" value="&lt;font style=&quot;font-size: 10px;&quot;&gt;\(\frac{1}{s}\)&lt;/font&gt;" style="rounded=0;whiteSpace=wrap;html=1;" parent="1" vertex="1">
                    <mxGeometry x="384" y="814" width="20" height="20" as="geometry"/>
                </mxCell>
                <mxCell id="0LmL37Ir94_41o80-0yw-80" style="edgeStyle=orthogonalEdgeStyle;rounded=0;orthogonalLoop=1;jettySize=auto;html=1;exitX=0.5;exitY=0;exitDx=0;exitDy=0;entryX=0;entryY=0.5;entryDx=0;entryDy=0;fontSize=10;startArrow=classic;startFill=1;endArrow=none;endFill=0;" parent="1" source="0LmL37Ir94_41o80-0yw-66" target="0LmL37Ir94_41o80-0yw-75" edge="1">
                    <mxGeometry relative="1" as="geometry"/>
                </mxCell>
                <mxCell id="0LmL37Ir94_41o80-0yw-85" style="edgeStyle=orthogonalEdgeStyle;rounded=0;orthogonalLoop=1;jettySize=auto;html=1;exitX=0.5;exitY=1;exitDx=0;exitDy=0;entryX=0;entryY=0.5;entryDx=0;entryDy=0;fontSize=10;startArrow=classic;startFill=1;endArrow=none;endFill=0;" parent="1" source="0LmL37Ir94_41o80-0yw-66" target="0LmL37Ir94_41o80-0yw-83" edge="1">
                    <mxGeometry relative="1" as="geometry"/>
                </mxCell>
                <mxCell id="0LmL37Ir94_41o80-0yw-88" style="edgeStyle=orthogonalEdgeStyle;rounded=0;orthogonalLoop=1;jettySize=auto;html=1;exitX=0;exitY=0.5;exitDx=0;exitDy=0;fontSize=10;startArrow=classic;startFill=1;endArrow=oval;endFill=1;" parent="1" source="0LmL37Ir94_41o80-0yw-66" edge="1">
                    <mxGeometry relative="1" as="geometry">
                        <mxPoint x="304" y="784" as="targetPoint"/>
                    </mxGeometry>
                </mxCell>
                <mxCell id="0LmL37Ir94_41o80-0yw-66" value="" style="shape=sumEllipse;perimeter=ellipsePerimeter;whiteSpace=wrap;html=1;backgroundOutline=1;" parent="1" vertex="1">
                    <mxGeometry x="324" y="814" width="20" height="20" as="geometry"/>
                </mxCell>
                <mxCell id="0LmL37Ir94_41o80-0yw-73" value="&lt;font style=&quot;font-size: 10px;&quot;&gt;\(\frac{1}{s}\)&lt;/font&gt;" style="rounded=0;whiteSpace=wrap;html=1;" parent="1" vertex="1">
                    <mxGeometry x="384" y="724" width="20" height="20" as="geometry"/>
                </mxCell>
                <mxCell id="0LmL37Ir94_41o80-0yw-74" value="&lt;font style=&quot;font-size: 10px;&quot;&gt;\(-\omega\)&lt;/font&gt;" style="rounded=0;whiteSpace=wrap;html=1;" parent="1" vertex="1">
                    <mxGeometry x="374" y="694" width="30" height="20" as="geometry"/>
                </mxCell>
                <mxCell id="0LmL37Ir94_41o80-0yw-81" style="edgeStyle=orthogonalEdgeStyle;rounded=0;orthogonalLoop=1;jettySize=auto;html=1;exitX=1;exitY=0.5;exitDx=0;exitDy=0;fontSize=10;startArrow=classic;startFill=1;endArrow=oval;endFill=1;" parent="1" source="0LmL37Ir94_41o80-0yw-75" edge="1">
                    <mxGeometry relative="1" as="geometry">
                        <mxPoint x="464" y="794" as="targetPoint"/>
                        <Array as="points">
                            <mxPoint x="464" y="794"/>
                            <mxPoint x="464" y="794"/>
                        </Array>
                    </mxGeometry>
                </mxCell>
                <mxCell id="0LmL37Ir94_41o80-0yw-75" value="&lt;font style=&quot;font-size: 10px;&quot;&gt;\(\sigma\)&lt;/font&gt;" style="rounded=0;whiteSpace=wrap;html=1;" parent="1" vertex="1">
                    <mxGeometry x="384" y="784" width="21" height="20" as="geometry"/>
                </mxCell>
                <mxCell id="0LmL37Ir94_41o80-0yw-86" style="edgeStyle=orthogonalEdgeStyle;rounded=0;orthogonalLoop=1;jettySize=auto;html=1;exitX=1;exitY=0.5;exitDx=0;exitDy=0;fontSize=10;startArrow=classic;startFill=1;endArrow=oval;endFill=1;" parent="1" source="0LmL37Ir94_41o80-0yw-83" edge="1">
                    <mxGeometry relative="1" as="geometry">
                        <mxPoint x="454" y="764" as="targetPoint"/>
                    </mxGeometry>
                </mxCell>
                <mxCell id="0LmL37Ir94_41o80-0yw-83" value="&lt;font style=&quot;font-size: 10px;&quot;&gt;\(\omega\)&lt;/font&gt;" style="rounded=0;whiteSpace=wrap;html=1;" parent="1" vertex="1">
                    <mxGeometry x="374" y="844" width="30" height="20" as="geometry"/>
                </mxCell>
                <mxCell id="0LmL37Ir94_41o80-0yw-89" value="" style="endArrow=none;html=1;rounded=0;fontSize=10;" parent="1" edge="1">
                    <mxGeometry width="50" height="50" relative="1" as="geometry">
                        <mxPoint x="274" y="784" as="sourcePoint"/>
                        <mxPoint x="304" y="784" as="targetPoint"/>
                    </mxGeometry>
                </mxCell>
                <mxCell id="0LmL37Ir94_41o80-0yw-90" value="\(u\)" style="text;html=1;align=center;verticalAlign=middle;resizable=0;points=[];autosize=1;fontSize=10;" parent="1" vertex="1">
                    <mxGeometry x="244" y="764" width="40" height="30" as="geometry"/>
                </mxCell>
                <mxCell id="0LmL37Ir94_41o80-0yw-98" style="edgeStyle=orthogonalEdgeStyle;rounded=0;orthogonalLoop=1;jettySize=auto;html=1;exitX=0;exitY=0.5;exitDx=0;exitDy=0;entryX=1;entryY=0.5;entryDx=0;entryDy=0;fontSize=10;startArrow=classic;startFill=1;endArrow=none;endFill=0;" parent="1" source="0LmL37Ir94_41o80-0yw-91" target="0LmL37Ir94_41o80-0yw-94" edge="1">
                    <mxGeometry relative="1" as="geometry"/>
                </mxCell>
                <mxCell id="0LmL37Ir94_41o80-0yw-99" style="edgeStyle=orthogonalEdgeStyle;rounded=0;orthogonalLoop=1;jettySize=auto;html=1;exitX=0.5;exitY=1;exitDx=0;exitDy=0;entryX=1;entryY=0.5;entryDx=0;entryDy=0;fontSize=10;startArrow=classic;startFill=1;endArrow=none;endFill=0;" parent="1" source="0LmL37Ir94_41o80-0yw-91" target="0LmL37Ir94_41o80-0yw-95" edge="1">
                    <mxGeometry relative="1" as="geometry"/>
                </mxCell>
                <mxCell id="0LmL37Ir94_41o80-0yw-100" style="edgeStyle=orthogonalEdgeStyle;rounded=0;orthogonalLoop=1;jettySize=auto;html=1;exitX=1;exitY=0.5;exitDx=0;exitDy=0;fontSize=10;startArrow=none;startFill=0;endArrow=classic;endFill=1;" parent="1" source="0LmL37Ir94_41o80-0yw-91" edge="1">
                    <mxGeometry relative="1" as="geometry">
                        <mxPoint x="594" y="763.9491525423729" as="targetPoint"/>
                    </mxGeometry>
                </mxCell>
                <mxCell id="0LmL37Ir94_41o80-0yw-91" value="" style="shape=sumEllipse;perimeter=ellipsePerimeter;whiteSpace=wrap;html=1;backgroundOutline=1;" parent="1" vertex="1">
                    <mxGeometry x="544" y="754" width="20" height="20" as="geometry"/>
                </mxCell>
                <mxCell id="0LmL37Ir94_41o80-0yw-96" style="edgeStyle=orthogonalEdgeStyle;rounded=0;orthogonalLoop=1;jettySize=auto;html=1;exitX=0;exitY=0.5;exitDx=0;exitDy=0;fontSize=10;startArrow=classic;startFill=1;endArrow=oval;endFill=1;" parent="1" source="0LmL37Ir94_41o80-0yw-94" edge="1">
                    <mxGeometry relative="1" as="geometry">
                        <mxPoint x="454" y="763.9491525423729" as="targetPoint"/>
                    </mxGeometry>
                </mxCell>
                <mxCell id="0LmL37Ir94_41o80-0yw-94" value="&lt;font style=&quot;font-size: 10px;&quot;&gt;\(2a\)&lt;/font&gt;" style="rounded=0;whiteSpace=wrap;html=1;" parent="1" vertex="1">
                    <mxGeometry x="484" y="754" width="30" height="20" as="geometry"/>
                </mxCell>
                <mxCell id="0LmL37Ir94_41o80-0yw-97" style="edgeStyle=orthogonalEdgeStyle;rounded=0;orthogonalLoop=1;jettySize=auto;html=1;exitX=0;exitY=0.5;exitDx=0;exitDy=0;fontSize=10;startArrow=classic;startFill=1;endArrow=oval;endFill=1;" parent="1" source="0LmL37Ir94_41o80-0yw-95" edge="1">
                    <mxGeometry relative="1" as="geometry">
                        <mxPoint x="464" y="794.1186440677966" as="targetPoint"/>
                    </mxGeometry>
                </mxCell>
                <mxCell id="0LmL37Ir94_41o80-0yw-95" value="&lt;font style=&quot;font-size: 10px;&quot;&gt;\(-2b\)&lt;/font&gt;" style="rounded=0;whiteSpace=wrap;html=1;" parent="1" vertex="1">
                    <mxGeometry x="484" y="784" width="30" height="20" as="geometry"/>
                </mxCell>
                <mxCell id="0LmL37Ir94_41o80-0yw-101" value="\(I\)" style="text;html=1;align=center;verticalAlign=middle;resizable=0;points=[];autosize=1;fontSize=10;" parent="1" vertex="1">
                    <mxGeometry x="404" y="804" width="40" height="30" as="geometry"/>
                </mxCell>
                <mxCell id="0LmL37Ir94_41o80-0yw-102" value="\(y\)" style="text;html=1;align=center;verticalAlign=middle;resizable=0;points=[];autosize=1;fontSize=10;" parent="1" vertex="1">
                    <mxGeometry x="554" y="739" width="40" height="30" as="geometry"/>
                </mxCell>
                <mxCell id="_RkswcxPKLXW6ceY8JrJ-26" value="20" style="rounded=0;whiteSpace=wrap;html=1;" parent="1" vertex="1">
                    <mxGeometry x="511" y="178" width="36" height="30" as="geometry"/>
                </mxCell>
                <mxCell id="0LmL37Ir94_41o80-0yw-104" value="" style="edgeStyle=orthogonalEdgeStyle;rounded=0;orthogonalLoop=1;jettySize=auto;html=1;exitX=0.5;exitY=0;exitDx=0;exitDy=0;startArrow=classic;startFill=1;endArrow=none;endFill=0;" parent="1" source="FZvzwjzBKpcImFm5YrXo-18" target="_RkswcxPKLXW6ceY8JrJ-26" edge="1">
                    <mxGeometry relative="1" as="geometry">
                        <mxPoint x="529" y="156" as="targetPoint"/>
                        <mxPoint x="529" y="236" as="sourcePoint"/>
                    </mxGeometry>
                </mxCell>
            </root>
        </mxGraphModel>
    </diagram>
</mxfile>